<?xml version="1.0" encoding="UTF-8" standalone="no"?>
<!-- Created with Inkscape (http://www.inkscape.org/) -->

<svg
   width="47.848236mm"
   height="47.699432mm"
   viewBox="0 0 47.848236 47.699432"
   version="1.1"
   id="svg5"
   xmlns:inkscape="http://www.inkscape.org/namespaces/inkscape"
   xmlns:sodipodi="http://sodipodi.sourceforge.net/DTD/sodipodi-0.dtd"
   xmlns="http://www.w3.org/2000/svg"
   xmlns:svg="http://www.w3.org/2000/svg">
  <sodipodi:namedview
     id="namedview7"
     pagecolor="#ffffff"
     bordercolor="#000000"
     borderopacity="0.25"
     inkscape:showpageshadow="2"
     inkscape:pageopacity="0.0"
     inkscape:pagecheckerboard="0"
     inkscape:deskcolor="#d1d1d1"
     inkscape:document-units="mm"
     showgrid="false" />
  <defs
     id="defs2" />
  <g
     inkscape:label="Слой 1"
     inkscape:groupmode="layer"
     id="layer1"
     transform="translate(-62.321878,-82.546476)">
    <g
       aria-label="@"
       id="text236"
       style="font-size:50.8px;font-family:'Century Gothic';-inkscape-font-specification:'Century Gothic';text-align:center;text-anchor:middle;fill-rule:evenodd;stroke-width:0.4;stroke-linecap:square;stroke-miterlimit:2;paint-order:markers stroke fill">
      <path
         d="m 104.88672,119.08379 h 5.2834 q -2.48047,5.03535 -7.61504,7.88789 -5.878711,3.27422 -14.33711,3.27422 -8.185547,0 -14.138671,-2.77813 -5.953125,-2.75332 -8.855274,-8.13594 -2.902148,-5.40742 -2.902148,-11.75742 0,-6.97011 3.299023,-12.972849 3.299024,-6.027539 9.028906,-9.028906 5.729883,-3.026172 13.096875,-3.026172 6.250781,0 11.1125,2.43086 4.861719,2.430859 7.416599,6.920507 2.57969,4.464844 2.57969,9.77305 0,6.32519 -3.89434,11.43496 -4.88652,6.44922 -12.526363,6.44922 -2.058789,0 -3.100586,-0.71934 -1.041797,-0.71934 -1.389062,-2.1084 -2.926953,2.82774 -6.746875,2.82774 -4.117578,0 -6.846094,-2.82774 -2.703711,-2.85254 -2.703711,-7.56543 0,-5.8291 3.274219,-10.641208 3.96875,-5.853906 10.169922,-5.853906 4.415234,0 6.523632,3.373437 l 0.620118,-2.75332 h 6.548437 l -3.745508,17.784957 q -0.347265,1.68672 -0.347265,2.18282 0,0.62011 0.272851,0.94257 0.297656,0.29766 0.694531,0.29766 1.190625,0 3.075782,-1.43867 2.530082,-1.88516 4.092772,-5.06016 1.5627,-3.175 1.5627,-6.57324 0,-6.101953 -4.415238,-10.194726 -4.415234,-4.117578 -12.32793,-4.117578 -6.72207,0 -11.410156,2.75332 -4.663281,2.728516 -7.044531,7.714258 -2.356445,4.960936 -2.356445,10.343556 0,5.23379 2.629297,9.525 2.654101,4.29121 7.416601,6.25078 4.787305,1.98437 10.938867,1.98437 5.92832,0 10.194727,-1.66191 4.266408,-1.63711 6.870898,-4.93613 z M 78.072853,108.88906 q 0,3.1502 1.265039,4.63848 1.289844,1.48828 3.175,1.48828 1.413867,0 2.654102,-0.69453 0.942578,-0.4961 1.860351,-1.5627 1.314649,-1.51308 2.257227,-4.41523 0.967383,-2.90215 0.967383,-5.40742 0,-2.80293 -1.314649,-4.291215 -1.289844,-1.513086 -3.274219,-1.513086 -2.133203,0 -3.943945,1.661914 -1.810742,1.637107 -2.728515,4.688087 -0.917774,3.05098 -0.917774,5.40742 z"
         style="-inkscape-font-specification:'Arial Bold';fill:#ffffff"
         id="path396" />
    </g>
  </g>
</svg>
