<?xml version="1.0" encoding="UTF-8" standalone="no"?>
<!-- Created with Inkscape (http://www.inkscape.org/) -->

<svg
   width="47.848236mm"
   height="47.699432mm"
   viewBox="0 0 47.848236 47.699432"
   version="1.1"
   id="svg5"
   sodipodi:docname="@.svg"
   inkscape:version="1.2.1 (9c6d41e410, 2022-07-14)"
   xmlns:inkscape="http://www.inkscape.org/namespaces/inkscape"
   xmlns:sodipodi="http://sodipodi.sourceforge.net/DTD/sodipodi-0.dtd"
   xmlns="http://www.w3.org/2000/svg"
   xmlns:svg="http://www.w3.org/2000/svg">
  <sodipodi:namedview
     id="namedview7"
     pagecolor="#ffffff"
     bordercolor="#000000"
     borderopacity="0.25"
     inkscape:showpageshadow="2"
     inkscape:pageopacity="0.0"
     inkscape:pagecheckerboard="0"
     inkscape:deskcolor="#d1d1d1"
     inkscape:document-units="mm"
     showgrid="false"
     inkscape:zoom="1.8512978"
     inkscape:cx="117.75523"
     inkscape:cy="162.04849"
     inkscape:window-width="1280"
     inkscape:window-height="971"
     inkscape:window-x="-4"
     inkscape:window-y="-4"
     inkscape:window-maximized="1"
     inkscape:current-layer="layer1" />
  <defs
     id="defs2" />
  <g
     inkscape:label="Слой 1"
     inkscape:groupmode="layer"
     id="layer1"
     transform="translate(-62.321878,-82.546476)">
    <path
       id="path233"
       style="fill:#ffffff;fill-rule:evenodd;stroke-width:0.44854;stroke-linecap:square;stroke-miterlimit:2;paint-order:markers stroke fill;stop-color:#000000"
       d="M 86.245999 82.825529 A 23.570822 23.570822 0 0 0 62.675345 106.39618 A 23.570822 23.570822 0 0 0 86.245999 129.96684 A 23.570822 23.570822 0 0 0 109.81665 106.39618 A 23.570822 23.570822 0 0 0 86.245999 82.825529 z M 87.513622 86.250643 C 91.033564 86.250643 94.162396 86.935397 96.900129 88.304264 C 99.637862 89.67313 101.72616 91.62169 103.16486 94.149902 C 104.61754 96.664147 105.34354 99.415537 105.34354 102.4047 C 105.34354 105.96654 104.24732 109.18612 102.05434 112.06354 C 99.302638 115.69522 95.775738 117.51127 91.473587 117.51127 C 90.314241 117.51127 89.441282 117.30863 88.854625 116.90355 C 88.267968 116.49848 87.876606 115.90499 87.681054 115.12278 C 86.032827 116.71514 84.133252 117.51127 81.982177 117.51127 C 79.663485 117.51127 77.736067 116.71514 76.199584 115.12278 C 74.677069 113.51646 73.915486 111.3864 73.915486 108.73247 C 73.915486 105.44999 74.837429 102.45367 76.681208 99.743876 C 78.916092 96.447422 81.779892 94.799475 85.271898 94.799475 C 87.758206 94.799475 89.594875 95.749262 90.782156 97.648913 L 91.306155 95.322957 L 96.837084 95.322957 L 93.673453 110.34581 C 93.477901 111.29564 93.379931 111.91026 93.379931 112.18963 C 93.379931 112.53882 93.45676 112.80386 93.610407 112.98544 C 93.778024 113.15306 93.973963 113.23711 94.197452 113.23711 C 94.867917 113.23711 95.733656 112.83182 96.795226 112.02168 C 98.219967 110.96011 99.372397 109.53543 100.25238 107.74752 C 101.13237 105.95961 101.5722 104.10902 101.5722 102.19541 C 101.5722 98.759272 100.32902 95.888769 97.842707 93.584045 C 95.356399 91.265353 91.885706 90.106221 87.429906 90.106221 C 83.644572 90.106221 80.431691 90.88121 77.791735 92.431661 C 75.165746 93.968144 73.182641 96.139969 71.84171 98.947542 C 70.514748 101.74115 69.851134 104.65393 69.851134 107.68499 C 69.851134 110.63225 70.59106 113.31403 72.07167 115.7305 C 73.566249 118.14696 75.654544 119.9068 78.336404 121.01028 C 81.032233 122.12772 84.112597 122.68666 87.576667 122.68666 C 90.915025 122.68666 93.785011 122.21847 96.187511 121.28261 C 98.590012 120.36072 100.52465 118.9711 101.99129 117.11336 L 106.45407 117.11336 C 105.05726 119.94887 102.91328 122.16968 100.0219 123.776 C 96.711481 125.61978 92.674627 126.54172 87.911531 126.54172 C 83.302082 126.54172 79.321432 125.75952 75.969107 124.1951 C 72.616781 122.64465 70.123203 120.35371 68.488943 117.32265 C 66.854685 114.27762 66.03793 110.96729 66.03793 107.39147 C 66.03793 103.46646 66.966576 99.813748 68.824323 96.433484 C 70.682071 93.039254 73.224118 90.497207 76.450731 88.807076 C 79.677345 87.102977 83.365119 86.250643 87.513622 86.250643 z M 85.753523 98.570821 C 84.552273 98.570821 83.442126 99.038495 82.42246 99.974353 C 81.402794 100.89624 80.634508 102.21625 80.117691 103.93432 C 79.600874 105.65239 79.342545 107.17504 79.342545 108.502 C 79.342545 110.27594 79.698327 111.58202 80.410696 112.4201 C 81.137034 113.25819 82.031133 113.67688 83.092703 113.67688 C 83.88888 113.67688 84.636025 113.48145 85.334427 113.09035 C 85.865212 112.81098 86.38909 112.37116 86.905907 111.77053 C 87.646213 110.91849 88.281983 109.6753 88.812767 108.04104 C 89.357521 106.40678 89.629772 104.88413 89.629772 103.47336 C 89.629772 101.89498 89.259551 100.68686 88.519245 99.848779 C 87.792908 98.99673 86.870965 98.570821 85.753523 98.570821 z " />
    <g
       aria-label="@"
       id="text236"
       style="font-size:50.8px;font-family:'Century Gothic';-inkscape-font-specification:'Century Gothic';text-align:center;text-anchor:middle;fill-rule:evenodd;stroke-width:0.4;stroke-linecap:square;stroke-miterlimit:2;paint-order:markers stroke fill"
       transform="matrix(0.84468137,0,0,0.84468137,13.395608,16.525311)" />
  </g>
</svg>
